<?xml version="1.0" encoding="utf-8"?>
<!-- Generator: Adobe Illustrator 21.1.0, SVG Export Plug-In . SVG Version: 6.00 Build 0)  -->
<svg version="1.1" id="Layer_1" xmlns="http://www.w3.org/2000/svg" xmlns:xlink="http://www.w3.org/1999/xlink" x="0px" y="0px"
	 viewBox="0 0 200 100" style="enable-background:new 0 0 200 100;" xml:space="preserve">
<g>
	<path d="M81.9,69.3V26.2h18.4V32H88.1v12.7h10.7v5.8H88.1v12.7h12.2v6.2H81.9z"/>
	<path d="M104.3,69.3V26.2h9.2c3.6,0,6.3,1,8.1,2.9c1.8,1.9,2.8,4.7,2.8,8.2v20.2c0,4-1,7-2.9,8.9c-2,1.9-4.8,2.9-8.5,2.9H104.3z
		 M110.5,32v31.5h2.8c1.7,0,3-0.4,3.7-1.3c0.7-0.9,1.1-2.2,1.1-4.1V37.3c0-1.7-0.3-3-1-3.9c-0.7-0.9-1.9-1.4-3.8-1.4H110.5z"/>
	<path d="M130.1,69.3V26.2h18.4V32h-12.2v12.7H147v5.8h-10.7v12.7h12.2v6.2H130.1z"/>
	<path d="M152.3,69.3V26.2h5.9l9.3,26h0.1v-26h6.2v43.2h-5.8l-9.5-26h-0.1v26H152.3z"/>
	<path d="M199.5,38.6h-6.2v-1.4c0-1.4-0.3-2.6-1-3.7c-0.7-1-1.8-1.5-3.4-1.5c-0.8,0-1.5,0.2-2.1,0.5c-0.5,0.3-1,0.7-1.3,1.2
		c-0.3,0.5-0.5,1.1-0.7,1.8c-0.1,0.7-0.2,1.4-0.2,2.1c0,0.8,0,1.6,0.1,2.1c0.1,0.6,0.2,1.1,0.5,1.5c0.2,0.4,0.6,0.8,1.1,1.2
		c0.5,0.3,1.1,0.6,1.9,1l4.7,1.9c1.4,0.5,2.5,1.1,3.3,1.8c0.8,0.7,1.5,1.5,2,2.5c0.4,1,0.7,2.1,0.9,3.3c0.2,1.2,0.2,2.6,0.2,4.2
		c0,1.8-0.2,3.5-0.5,5.1c-0.4,1.6-0.9,2.9-1.8,4c-0.8,1.1-2,2-3.3,2.7c-1.4,0.6-3.1,1-5,1c-1.5,0-2.9-0.3-4.2-0.8
		c-1.3-0.5-2.4-1.3-3.3-2.2c-0.9-0.9-1.7-2-2.2-3.2s-0.8-2.6-0.8-4v-2.3h6.2v1.9c0,1.1,0.3,2.2,1,3.1c0.7,0.9,1.8,1.4,3.4,1.4
		c1.1,0,1.9-0.2,2.5-0.5c0.6-0.3,1-0.7,1.4-1.3c0.3-0.6,0.5-1.2,0.6-2c0.1-0.8,0.1-1.7,0.1-2.6c0-1.1,0-2.1-0.1-2.8
		c-0.1-0.7-0.2-1.3-0.5-1.8c-0.3-0.4-0.7-0.8-1.1-1.1c-0.5-0.3-1.1-0.6-1.8-0.9l-4.4-1.8c-2.7-1.1-4.5-2.5-5.4-4.3
		c-0.9-1.8-1.4-4.1-1.4-6.8c0-1.6,0.2-3.2,0.7-4.6c0.4-1.5,1.1-2.7,2-3.8c0.8-1.1,1.9-1.9,3.2-2.5c1.3-0.6,2.9-0.9,4.7-0.9
		c1.5,0,2.9,0.3,4.2,0.8c1.3,0.6,2.4,1.3,3.3,2.2c1.9,1.9,2.8,4.2,2.8,6.7V38.6z"/>
</g>
<g>
	<path d="M20.6,47.3c0,0.4-0.4,0.7-0.7,0.9c-0.2,0.2-0.5,0.4-0.5,0.9c-0.2,0.7-0.4,0.9-0.9,1.1c-0.4,0.2-0.4,0.4-0.5,1.5
		c0.4,0,0.5,0,0.7,0.2V52h-1.3c0.2-0.5,0.2-1.1,0.2-1.5h-0.4l-0.5,3.8c0.4,0.2,0.5,0.4,0.7,0.4c0.2,1.3,0.2,2.4,0.2,3.6
		c0,1.3,0.4,2.4,0.7,3.3c0.5,0.7,2,4.7,2.5,5.5c2.5,2.5,5.6,5.8,8.6,6c0.9,0.2,6.2-0.7,7.1-0.9c4.4-1.3,8.6-3.6,12.6-6.7
		c3.1-2.4,6-5.1,9.1-7.6l0.5-0.5l3.3-3.6c2-2,3.8-4,5.5-6.4c0.5-0.9,1.1-1.8,2.2-2.2c-0.4,1.6-0.7,3.1-1.5,4.6
		c-0.2,0.5-0.5,1.1-0.9,1.5c-1.1,1.3-2,2.4-2.7,3.8l-1.8,2.2L62,58.2l1.5-0.5c-0.2,1.1-1.1,1.3-1.3,2.2c0.2,0.2,0.2,0.4,0.5,0.5
		c-0.5,0.9-1.1,1.5-1.8,2.2c-1.1,0.9-2.2,2-3.1,3.1c-1.6,1.8-3.5,3.3-5.3,4.7c-0.9,0.7-1.6,1.5-2.5,2l-2.2,1.5
		c-1.1,0.5-2.2,1.1-3.3,1.8c-1.8,1.1-3.8,2-5.8,2.4L37,78.6c-2.2,0.7-4.4,1.1-6.6,1.3c-2.5,0.4-13.3-1.6-15.7-2.5
		c-6.4-2.5-7.6-5.6-10.6-8.2c-1.1-0.9-2-2.4-2.5-3.8c-0.9-2.4-1.1-4.9-1.3-7.6c0-5.6,1.5-11.1,3.8-16.2c0.5-1.1,0.5-1.1,0.4-2.7
		c-0.9,0.5-1.5,0.9-1.8,2c-0.5,1.6-1.3,3.1-2.2,4.7c0-1.6,0.7-2.7,1.3-4C3.3,38.2,5,35.1,7,32.1c2-3.1,4.2-5.8,6.7-8.4
		c2.5-2.7,5.3-5.1,8.2-6.9l1.8-0.9c0.9-0.4,1.8-0.5,2.4,0.4c0.5,0.5,1.3,0.4,1.6,0.7c0.5,0.4,0.7,1.1,1.1,1.5
		c1.8,0.9,8.7,2.7,10.4,3.8c0.5,0.4,0.9,1.1,1.3,1.8c0.9,1.6,1.6,3.5,2.9,4.6c0.4,0.4,0.5,1.1,0.7,1.6c0.4,2.2,0.5,4.2,0,6.6
		c-0.4,2.5-1.5,4.9-2.7,7.1c-0.7,1.3-1.5,2.4-2,3.8c-0.4,1.3-1.1,2.4-1.8,3.6c-0.7,1.5-2,2.4-3.3,2.7c-1.1,0.5-2.4,0.7-3.5,0.5
		c-0.5-0.2-1.1,0-1.5-0.7c0-0.2-0.2-0.2-0.2-0.2c-1.5,0.2-2.4-1.5-3.5-2c-0.2-0.2-0.4-0.7-0.4-0.9c0.4-0.7,0-1.1-0.2-1.6
		c-0.7-1.5-1.5-3.1-2.4-4.6c-0.2-0.5-0.7-0.7-1.3-0.2C21.4,45.4,20.6,46.2,20.6,47.3z M3.3,63.6l0.5,1.5c0,0.5,0.5,0.9,0.2,1.6
		c-0.2-0.2-0.4-0.2-0.4-0.4c-0.9-1.8-1.3-4.2-1.6-6.6c-0.2-0.2,0-0.4,0-0.5c0-2.7,0-5.3,0.7-8c0.2-0.5,0.4-1.1,0.4-1.6v-1.3
		c-0.5,1.1-0.9,1.8-1.1,2.5l-0.5,2.5C0.8,58.2,1,62.6,3,66.4c0.4,0.7,0.9,1.3,1.5,2c0.4,0.4,0.7,0.5,1.3,0.7c0,0.2,0.2,0,0.5,0
		c-0.5-0.9-1.1-1.6-1.5-2.5c-0.5-1.1-0.5-2.2-1.1-3.1C3.5,63.5,3.3,63.6,3.3,63.6z M3.3,52c-0.9,2.9-0.7,5.6-0.4,8.4
		c0,0.2,0.2,0.2,0.4,0.4l0.5-5.6c0.2-1.3,0.4-2.5-0.2-3.6C3.5,51.6,3.3,51.8,3.3,52z M26.3,37.4l-1.3,2c-0.7,1.3-0.5,2.2,0.4,2.7
		c0.5,0.4,1.3,0.7,1.6,1.3c1.1,1.3,2.5,1.1,4,0.9c1.3-0.4,2.2-1.6,2.9-2.9c1.3-3.1,2-3.6,3.1-6.7c2.9-6.9-2.9-5.3-5.6-3.1
		C29.4,33.1,27.9,35.4,26.3,37.4z"/>
</g>
</svg>
